<?xml version="1.0" encoding="utf-8"?>

<!DOCTYPE svg PUBLIC "-//W3C//DTD SVG 1.1//EN" "http://www.w3.org/Graphics/SVG/1.1/DTD/svg11.dtd">
<!-- Uploaded to: SVG Repo, www.svgrepo.com, Generator: SVG Repo Mixer Tools -->
<svg version="1.1" id="DOWNLOAD" xmlns="http://www.w3.org/2000/svg" xmlns:xlink="http://www.w3.org/1999/xlink" 
	 width="30px" height="30px" viewBox="0 0 1800 1800" enable-background="new 0 0 1800 1800" xml:space="preserve">
<g>
	<path fill="#333333" d="M899.996,1.402C404.51,1.402,1.403,404.513,1.403,900.003c0,495.485,403.107,898.595,898.592,898.595
		c495.489,0,898.6-403.109,898.6-898.595C1798.596,404.513,1395.484,1.402,899.996,1.402z M899.996,1735.555
		c-460.721,0-835.546-374.826-835.546-835.552c0-460.726,374.825-835.556,835.546-835.556c460.724,0,835.555,374.83,835.555,835.556
		C1735.551,1360.729,1360.72,1735.555,899.996,1735.555z"/>
	<path fill="#333333" d="M1178.01,942.664h-151.185V603.598c0-17.411-14.112-31.522-31.522-31.522H797.969
		c-17.411,0-31.522,14.111-31.522,31.522v339.066H615.253c-11.896,0-22.781,6.698-28.141,17.319
		c-5.361,10.624-4.283,23.36,2.779,32.929l281.383,381.16c5.946,8.056,15.356,12.805,25.362,12.805
		c10.005,0,19.417-4.749,25.361-12.805l281.375-381.16c7.062-9.568,8.14-22.305,2.779-32.929
		C1200.79,949.362,1189.906,942.664,1178.01,942.664z M896.636,1302.273L677.705,1005.71h120.264
		c17.41,0,31.523-14.106,31.523-31.522V635.12H963.78v339.067c0,17.416,14.112,31.522,31.522,31.522h120.256L896.636,1302.273z"/>
	<path fill="#333333" d="M794.556,529.751h204.15c17.411,0,31.522-14.113,31.522-31.523s-14.111-31.522-31.522-31.522h-204.15
		c-17.411,0-31.523,14.112-31.523,31.522S777.145,529.751,794.556,529.751z"/>
</g>
</svg>